<?xml version="1.0" standalone="no"?>
<!DOCTYPE svg PUBLIC "-//W3C//DTD SVG 20010904//EN"
 "http://www.w3.org/TR/2001/REC-SVG-20010904/DTD/svg10.dtd">
<svg version="1.0" xmlns="http://www.w3.org/2000/svg"
 width="512.000000pt" height="512.000000pt" viewBox="0 0 512.000000 512.000000"
 preserveAspectRatio="xMidYMid meet">
<metadata>
Created by potrace 1.11, written by Peter Selinger 2001-2013
</metadata>
<g transform="translate(0.000000,512.000000) scale(0.100000,-0.100000)"
fill="#000000" stroke="none">
<path d="M2379 5116 c-2 -2 -38 -6 -79 -10 -64 -6 -207 -29 -315 -51 -16 -3
-77 -19 -134 -36 -526 -151 -996 -473 -1332 -914 -85 -112 -147 -210 -241
-385 -91 -168 -183 -434 -227 -650 -38 -190 -46 -274 -45 -520 0 -184 3 -241
19 -345 3 -16 7 -43 9 -60 22 -160 102 -434 171 -590 41 -91 131 -271 153
-302 10 -15 39 -59 63 -98 51 -80 172 -238 238 -309 444 -480 1002 -763 1641
-833 142 -16 480 -9 620 12 197 30 496 112 638 176 582 260 1017 670 1290
1214 82 165 176 415 197 526 3 13 7 35 10 49 3 14 7 35 10 48 2 13 6 31 9 40
9 27 19 101 33 227 10 91 10 409 1 505 -9 85 -22 172 -37 245 -6 28 -13 61
-15 75 -3 14 -15 61 -27 105 -222 822 -857 1489 -1675 1759 -44 14 -89 28
-100 31 -10 2 -55 13 -99 24 -44 11 -97 22 -119 25 -21 4 -41 8 -45 10 -3 2
-35 7 -71 11 -36 4 -76 10 -90 12 -31 5 -446 13 -451 9z"/>
</g>
</svg>
